PathFileType	4	(X/Y/Z)	Walk3.trc
DataRate	CameraRate	NumFrames	NumMarkers	Units	OrigDataRate	OrigDataStartFrame	OrigNumFrames
200.000000	200.000000	4	56	mm	200.000000	347	604
Frame#	Times		RFA1		RUA1		RACR1		LFA1		RBHD		RASI		C7		RTH2		RTH3		RElbow		LElbowM		RTB1		RTB3		RWRU		RTH4		RLFC		RTH1		LACR1		RTB2		RMT1		RCAR		RMT5		RTB4		LElbow		LTH2		LTH3		LTH4		LWRU		LPSI		RPSI		LTB1		LLFC		T10		RWRR		LTH1		LBHD		LWRR		LTB3		LTB2		LFHD		LMT1		RBack		LCAL		LTB4		LLMAL		CLAV		LMMAL		RElbowM		LToe		LMT5		RMMAL		RLMAL		LCAR		LUA1		RCAL		RToe
			X1	Y1	Z1	X2	Y2	Z2	X3	Y3	Z3	X4	Y4	Z4	X5	Y5	Z5	X6	Y6	Z6	X7	Y7	Z7	X8	Y8	Z8	X9	Y9	Z9	X10	Y10	Z10	X11	Y11	Z11	X12	Y12	Z12	X13	Y13	Z13	X14	Y14	Z14	X15	Y15	Z15	X16	Y16	Z16	X17	Y17	Z17	X18	Y18	Z18	X19	Y19	Z19	X20	Y20	Z20	X21	Y21	Z21	X22	Y22	Z22	X23	Y23	Z23	X24	Y24	Z24	X25	Y25	Z25	X26	Y26	Z26	X27	Y27	Z27	X28	Y28	Z28	X29	Y29	Z29	X30	Y30	Z30	X31	Y31	Z31	X32	Y32	Z32	X33	Y33	Z33	X34	Y34	Z34	X35	Y35	Z35	X36	Y36	Z36	X37	Y37	Z37	X38	Y38	Z38	X39	Y39	Z39	X40	Y40	Z40	X41	Y41	Z41	X42	Y42	Z42	X43	Y43	Z43	X44	Y44	Z44	X45	Y45	Z45	X46	Y46	Z46	X47	Y47	Z47	X48	Y48	Z48	X49	Y49	Z49	X50	Y50	Z50	X51	Y51	Z51	X52	Y52	Z52	X53	Y53	Z53	X54	Y54	Z54	X55	Y55	Z55	X56	Y56	Z56

347	1.735	-352.94	925.12	595.5	-320.6	1190.3	547.27	-266.65	1379.4	469.64	-285.04	998.62	3.7463	-305.16	1567.2	410.03	-241.98	948.42	437.09	-342.02	1440.7	331.96	-179.73	673.01	441.61	-221.36	560.84	452.98	-380.35	1069.9	572.69	-416.7	1119.1	108.19	-179.36	369.41	348.44	-206.18	180.83	346.41	-375.79	794.96	589.69	-242.43	650.01	474.83	-201.13	460.93	435.08	-266.05	741.75	489.33	-312.96	1438.2	151.63	-193.03	273.67	421.09	-124.99	37.692	301.8	-336.59	738.64	597.52	-147.74	33.348	392.48	-190.11	277.05	348.9	-392.5	1120.4	30.672	-218.79	649.19	147.05	-274.6	547.81	129.41	-290.44	635.9	119.31	-281.8	880.56	8.0096	-443.47	958.39	252.25	-433.89	965.29	357.58	-305.66	341.17	206.63	-278.1	439.38	144.61	-445.16	1133.5	306.18	-305.29	788.85	555.62	-305.52	732.64	115.96	-305.45	1586.2	272.84	-215.93	907.78	48.388	-469.97	254.52	222.19	-408.5	324.08	150.65	-121.82	1596.4	297.42	-560.53	91.074	267.94	-409.74	1344.2	425.05	-669.29	259.04	254.28	-388.52	299.41	214.86	-611.89	246.65	202.83	-212.62	1355.9	302.77	-574.19	226.46	284.99	-409.29	1049	481.27	-530.64	67.161	244.07	-580.56	109.16	189.97	-251.98	95.935	304.01	-269.06	81.525	393.66	-202.46	855.83	1.5766	-353.8	1248.6	49.798	-324.48	34.455	356.83	-70.907	35.366	320.68
348	1.74	-341.33	926.42	595.68	-311.77	1191.6	547.03	-259.86	1380.9	469.19	-280.58	999.29	3.7091	-298.57	1568.3	409.59	-235.63	949.4	436.94	-335.67	1442.2	331.57	-175.8	672.62	441.67	-218.32	560.92	453.06	-370.54	1070.5	573.48	-411.83	1120.4	108.14	-178.18	369.29	348.65	-205.95	180.79	346.36	-362.55	795.71	590.06	-238.68	650.31	474.86	-199.8	460.91	435.35	-261.06	742.5	489.27	-307.26	1439.6	151.28	-191.97	273.34	421.29	-124.98	37.664	301.83	-322.57	740.21	597.77	-147.73	33.33	392.48	-189.7	277.06	348.96	-387.42	1121.8	30.727	-209.15	652.39	145.86	-263.17	550.21	128.43	-280.74	637.82	118.52	-277.94	881.19	8.0404	-437.18	959.6	252.2	-427.31	966.88	357.82	-292.32	342.85	205.85	-264.88	441.88	143.71	-438.59	1134.7	306.51	-292.25	790.81	555.75	-297.43	734.42	115.45	-299.16	1587.7	272.51	-212.04	908.02	48.549	-455.03	255.68	221.22	-394.43	325.92	149.9	-115.36	1597.7	297.12	-543.34	91.871	266.58	-403.03	1345.4	425.06	-654.54	258.12	254.1	-373.7	300.88	213.76	-596.95	246.75	202.31	-206.23	1357.5	302.11	-558.75	226.65	284.44	-400.12	1049.3	482.22	-513.2	68.518	242.49	-563.91	110.1	188.61	-252.03	95.99	304.05	-268.93	81.523	393.69	-198.75	855.72	1.6959	-348.59	1249.8	49.697	-324.49	34.515	356.85	-70.884	35.223	320.68
349	1.745	-329.54	927.72	596.01	-303.36	1192.8	546.64	-253.18	1382.5	468.87	-276.42	999.86	3.6898	-292.21	1569.7	409.3	-229.23	950.31	436.93	-329.23	1443.5	331.41	-171.76	672.36	441.48	-216	561.02	453.26	-360.62	1071.6	573.97	-406.87	1121.8	108.31	-177.29	369.18	348.68	-205.84	180.72	346.31	-349.32	796.51	590.75	-235.1	650.9	474.93	-198.25	460.58	435.52	-256.11	743.13	489.15	-301.82	1440.8	151.01	-191.29	273.13	421.45	-124.99	37.637	301.86	-308.3	742.09	598.12	-147.68	33.319	392.53	-189.28	276.94	349.13	-382.66	1122.9	31.007	-199.59	655.54	144.79	-251.83	552.49	127.46	-270.91	639.87	117.58	-274.47	881.6	7.8368	-430.76	961.11	252.27	-420.89	968.49	357.9	-278.81	344.7	204.65	-251.69	444.41	142.72	-432.15	1136.1	306.74	-279.02	792.99	555.66	-289.39	736.14	114.77	-292.64	1589.4	271.9	-208.44	908.26	48.607	-439.9	256.66	220.05	-380.1	327.78	148.9	-109.01	1598.8	296.72	-525.92	92.182	265.17	-396.36	1346.6	425.37	-639.87	256.88	253.55	-359.03	302.11	212.69	-581.97	246.48	201.84	-199.95	1359	301.38	-542.98	226.87	283.67	-391.29	1050.1	482.95	-495.15	69.61	240.93	-546.53	110.74	187.49	-252	96.033	304.12	-268.84	81.57	393.72	-195.13	855.72	1.8649	-343.6	1251	49.63	-324.41	34.579	356.72	-70.842	35.086	320.75
350	1.75	-317.55	928.82	596.25	-294.55	1194	546.25	-246.59	1383.9	468.2	-272.3	1000.7	3.8778	-285.77	1571	409.04	-222.97	951.35	436.85	-323.03	1444.8	331.04	-167.91	672.01	441.5	-213.51	561.21	453.41	-350.94	1072.4	574.66	-401.93	1123	108.34	-175.53	368.92	348.51	-205.71	180.65	346.31	-335.8	798.1	590.98	-231.91	651.29	475.05	-196.72	460.53	435.58	-251.53	743.82	489.12	-296.08	1442	150.54	-190.88	272.9	421.55	-124.98	37.634	301.88	-294.17	743.68	598.53	-147.68	33.285	392.59	-188.58	276.83	349.34	-377.87	1123.9	31.438	-189.95	658.68	143.45	-240.64	554.83	126.54	-261.16	642.01	116.76	-270.79	882.26	7.7839	-424.07	962.9	252.62	-415.29	969.89	357.59	-264.68	346.65	203.29	-238.72	447.06	141.71	-425.74	1137	306.6	-265.84	795.22	555.57	-281.23	737.83	114.24	-286.15	1590.8	271.67	-204.66	908.62	48.458	-424.54	257.42	219.12	-365.91	329.62	148.05	-102.5	1600.1	296.18	-507.97	92.404	264.25	-389.63	1347.8	425.31	-624.83	255.08	253.35	-344.41	303.37	211.54	-566.44	246.07	201.24	-193.87	1360.2	300.7	-527.52	226.3	283.16	-382.1	1050.7	483.5	-476.66	70.588	239.58	-528.75	111.1	186.39	-251.92	96.104	304.13	-268.73	81.431	393.64	-191.87	855.89	1.9039	-338.76	1252.2	49.363	-324.5	34.504	356.81	-70.813	34.951	320.77
